<?xml version="1.0" standalone="no"?>
<!DOCTYPE svg PUBLIC "-//W3C//DTD SVG 20010904//EN"
 "http://www.w3.org/TR/2001/REC-SVG-20010904/DTD/svg10.dtd">
<svg version="1.0" xmlns="http://www.w3.org/2000/svg"
 width="700.000000pt" height="700.000000pt" viewBox="0 0 700.000000 700.000000"
 preserveAspectRatio="xMidYMid meet">
<metadata>
Created by potrace 1.14, written by Peter Selinger 2001-2017
</metadata>
<g transform="translate(0.000000,700.000000) scale(0.100000,-0.100000)"
fill="#000000" stroke="none">
<path d="M2028 5835 c-2 -2 -39 -5 -82 -9 -44 -4 -83 -9 -88 -12 -4 -3 -21 -8
-36 -10 -102 -18 -266 -106 -371 -200 -114 -102 -214 -270 -257 -429 -20 -74
-35 -319 -21 -343 3 -4 8 -24 11 -46 24 -150 128 -338 253 -457 409 -389 1066
-301 1354 182 232 388 129 891 -237 1155 -86 62 -210 120 -299 140 -64 15
-221 34 -227 29z m133 -612 c187 -84 229 -342 78 -480 -60 -54 -99 -67 -194
-68 -106 0 -143 14 -210 82 -77 77 -102 182 -69 293 20 68 107 159 174 182 61
21 163 17 221 -9z"/>
<path d="M5480 5825 c-25 -7 -61 -20 -80 -30 -19 -9 -967 -950 -2107 -2089
-2271 -2270 -2120 -2111 -2124 -2237 -7 -216 213 -364 409 -274 51 23 280 249
2125 2093 1819 1818 2071 2074 2097 2127 60 120 33 257 -67 346 -67 59 -171
85 -253 64z"/>
<path d="M4820 2903 c-245 -41 -453 -174 -584 -373 -129 -194 -175 -402 -140
-621 69 -430 427 -738 863 -741 195 -1 396 71 551 197 99 81 170 169 227 280
24 48 62 146 68 175 1 3 5 25 9 50 5 25 10 54 12 65 9 42 6 193 -5 252 -60
327 -287 588 -597 686 -136 43 -270 53 -404 30z m244 -590 c60 -22 124 -82
156 -148 35 -71 35 -180 0 -249 -30 -60 -81 -110 -140 -139 -60 -29 -176 -31
-235 -3 -109 52 -175 150 -175 261 0 135 66 231 195 282 45 17 144 15 199 -4z"/>
</g>
</svg>
